<?xml version="1.0" encoding="UTF-8"?><svg id="Layer_1" xmlns="http://www.w3.org/2000/svg" viewBox="0 0 493.5 374.44"><defs><style>.cls-1{stroke:#c69c6d;stroke-width:18px;}.cls-1,.cls-2,.cls-3,.cls-4,.cls-5{stroke-miterlimit:10;}.cls-1,.cls-5{fill:#009245;}.cls-2{fill:#fbdb3b;stroke:#fbb03b;stroke-width:9px;}.cls-3{fill:#603813;stroke:#42210b;stroke-width:8px;}.cls-4{fill:#c69c6d;stroke:#a67c52;}.cls-4,.cls-5{stroke-width:12px;}.cls-5{stroke:#006837;}.cls-6{stroke-miterlimit:10;stroke-width:12px;}.cls-6,.cls-7{fill:#ed1c24;stroke:#c1272d;}.cls-7{stroke-miterlimit:10;stroke-width:12px;}</style></defs><g id="Half_Wrap"><path class="cls-1" d="M9,186.24C9,24.62,147.18,9,200.16,9c11.23,0,20.26,8.06,20.26,17.94-.12,27.95-.24,87.64-.24,157.59s.24,132.2,.24,161c0,10.25-8.91,18.68-20.38,19.41-53.1,3.3-191.03-4.88-191.03-178.7"/><path class="cls-5" d="M78.58,180.87c-24.66-32.59-25.15-44.19-21.61-48.95,7.2-9.4,33.93,4.39,42.36-6.71,7.45-9.77-9.28-26.24-3.05-41.62,5.25-13.18,24.17-18.31,41.26-20.51"/><path class="cls-5" d="M134.36,294.15c-25.39,15.01-33.2,14.16-35.77,10.99-5.13-6.35,8.06-25.15,2.08-32.47-5.37-6.47-18.68,4.52-27.95-1.71-7.93-5.25-8.42-19.77-7.2-32.84"/><path class="cls-5" d="M176.84,230.67c-26.49-17.46-30.15-26-28.93-30.52,2.56-9.03,25.51-6.1,28.44-16.6,2.56-9.28-13.79-16.97-13.67-30.15,.12-11.23,12.21-20.26,23.92-26.73"/><ellipse class="cls-7" cx="101.74" cy="201.74" rx="32.22" ry="14.65" transform="translate(-113.55 270.32) rotate(-80.91)"/><ellipse class="cls-6" cx="165.24" cy="73.93" rx="12.21" ry="28.07" transform="translate(-14.82 92.52) rotate(-30)"/><ellipse class="cls-7" cx="178.79" cy="290.88" rx="33.32" ry="15.75" transform="translate(-136.69 421.47) rotate(-80.91)"/></g><g id="Half_Burger"><path class="cls-4" d="M254.72,286.7c64.57-.61,129.15-1.22,193.72-1.83,1.46,3.3,2.93,7.32,3.66,12.21,2.32,16.11-5.62,28.93-8.54,33.2-1.34,2.81-4.52,8.67-12.08,13.79-8.06,5.49-16.72,7.32-20.75,7.93h-131.46c-3.78,0-15.14-.61-25.76-6.84-8.79-5.25-12.33-11.6-13.55-14.28v-33.08c0-6.23,6.59-11.11,14.77-11.11h0Z"/><path class="cls-3" d="M250.08,227.5h198.97c5.74,0,10.38,4.64,10.38,10.38v28.08c0,5.74-4.64,10.38-10.38,10.38H250.08c-5.74,0-10.38-4.64-10.38-10.38v-28.08c0-5.74,4.64-10.38,10.38-10.38Z"/><path class="cls-5" d="M467.85,222.74c-2.2,3.3-9.4,14.28-17.82,13.67-7.32-.49-8.42-7.45-17.58-13.67-3.05-2.08-20.14-13.18-34.91,0-5,4.39-10.99,11.6-19.77,12.21-8.79,.61-9.77-10.38-20.26-12.21-1.46-.24-2.08-.12-5.37,.24-15.87,2.08-25.88,3.42-33.93,.85-.98-.37-3.78-1.22-7.57-1.22-11.72,.24-11.6,7.93-23.31,7.57-12.94-.37-12.57-9.77-23.56-7.57,0,0-9.77,1.95-19.29,0-.85-.12-3.05-.73-4.52-3.78-1.22-2.32-1.95-5.62-1.95-9.15v-22.95c-.24-2.32-.37-5.98,1.95-9.15,1.46-1.95,3.17-3.05,4.52-3.78,.98-.49,4.76-2.56,9.64-2.56,8.67,.12,10.74,6.96,23.19,9.89,2.93,.73,4.39,1.1,5.86,.98,10.25-.98,20.38-15.62,26.12-15.99,4.15-.24,4.64,2.32,14.28,4.88,4.03,1.1,9.28,2.44,16.11,2.81,3.42,.12,9.77,.24,17.46-1.46,16.72-3.78,16.48-10.99,26.61-10.74,12.33,.37,12.69,10.25,24.17,8.79,10.62-1.34,12.21-10.01,22.09-8.79,8.79,1.1,7.69,7.81,17.33,9.03,13.55,1.71,15.75,2.2,20.26,3.17,.85,.12,3.05,.73,4.52,3.78,1.22,2.32,1.95,5.62,1.95,9.15,2.56,2.32,4.15,7.69,3.78,12.94-.37,6.84-3.66,9.77-3.78,9.89-1.1,3.66-3.17,8.54-6.23,13.18h0Z"/><path class="cls-2" d="M487.25,164.02c-.24,.49-.73,1.1-1.46,1.46-.24,0-.49,.12-.73,0-.73-.24-1.34-1.1-1.46-1.46-.73-1.22-1.46-1.95-2.32-2.32-.61-.12-.98,0-1.22,0h-.12c-.49,.12-235.71,5.49-236.81,2.32-3.78-10.86-4.03-12.08-1.1-22.22,.37-1.22,1.46-1.95,2.56-1.95,178.34-1.34,235.83-1.71,235.95-1.71h.12s.61-.12,1.1,0c2.56,.37,4.52,.61,5.62,3.05,.24,.49,.49,1.1,.73,3.05,.24,1.46,2.32,14.65-.85,19.77h0Z"/><path class="cls-4" d="M255.7,128.14c67.75,.98,209.34-.98,210.69-2.93,2.44-3.66,1.83-9.15,2.32-14.65,2.44-26.85-5.74-48.22-9.03-55.78-.12-.24-.24-.49-.24-.85-1.46-5-5-14.4-12.94-22.95-8.06-8.67-16.72-11.96-21.36-13.18-.61-.12-1.34-.24-1.95-.24h-140.99c-16.11,0-29.91-.73-35.89,5.37-6.59,6.71-3.54,12.08-6.23,29.42-.12,.98-.24,1.83-.37,2.32v54.93c0,10.25,7.08,18.68,15.99,18.55h0Z"/></g></svg>